<svg xmlns="http://www.w3.org/2000/svg" viewBox="0 0 124.409 22.707" fill="#f28b01">
            <g transform="translate(112.132 -282.754)">
                <path d="M154.972,295.973a14.6,14.6,0,0,0,1.474-.009c.78-.079.985.263.933.991a7.6,7.6,0,0,0,.012,2.541,3.036,3.036,0,0,0,.255.805,1.071,1.071,0,0,0,1.077.617.921.921,0,0,0,.77-.869c.257-1.747.065-3.416-1.482-4.528a32.822,32.822,0,0,1-3.044-2.583,6.728,6.728,0,0,1-2.21-6.793c.486-2.017,2.115-2.838,3.987-3.216a9.44,9.44,0,0,1,4.232.143,4.088,4.088,0,0,1,3.211,3.9,4.817,4.817,0,0,1-.036,2.44c-.413.741-1.491.133-2.262.283a1.259,1.259,0,0,1-.232.019,3.7,3.7,0,0,1-1.456-.041c-.493-.233-.166-.874-.257-1.329-.23-1.151-.62-1.525-1.592-1.469a.815.815,0,0,0-.888.925,2.249,2.249,0,0,0,.856,1.905c1.016.8,2,1.644,3.053,2.394a7.686,7.686,0,0,1,3.136,6.2,8.939,8.939,0,0,1-.263,3,4.2,4.2,0,0,1-3.357,3.165,11.367,11.367,0,0,1-4.471.1,3.913,3.913,0,0,1-3.663-3.621,21.867,21.867,0,0,1-.21-4.333.618.618,0,0,1,.721-.7c.569.016,1.139,0,1.708,0Z" transform="translate(-176.605 0)" />
                <path d="M197.97,311.493a4.255,4.255,0,0,1-3.988,1.063,2.566,2.566,0,0,1-2.09-1.761,9.975,9.975,0,0,1-.565-3.659c-.051-4.3-.035-8.592-.072-12.887,0-.562.219-.751.721-.736.957.029,1.914.042,2.869.1.706.043.768.626.784,1.139.037,1.175.014,2.351.026,3.527.031,3.208.054,6.416.11,9.623.02,1.133.571,1.58,1.49,1.318.351-.1.611-.272.626-.681.013-.336.054-.671.052-1.006-.027-3.907-.069-7.815-.088-11.722-.011-2.19.005-2.191,2.187-2.16,2.2.031,2.236.031,2.249,2.239.032,5.252.019,10.505.048,15.757,0,.618-.224.841-.811.824-.88-.027-1.761-.054-2.639-.029C198.274,312.459,197.854,312.343,197.97,311.493Z" transform="translate(-202.446 -7.178)" />
                <path d="M232.994,292.66a4.614,4.614,0,0,1,2.939-1.069A2.963,2.963,0,0,1,239,293.623a8.848,8.848,0,0,1,.583,3.578c-.133,4.218.01,8.435.028,12.651,0,.67-.258.945-.924.9-.8-.05-1.6-.073-2.406-.084a.977.977,0,0,1-1.035-.932,13.955,13.955,0,0,1,.027-2.476c-.055-3.313-.067-6.626-.1-9.939a5.656,5.656,0,0,0-.1-1.235c-.132-.555-.284-1.111-1.106-.989a1.043,1.043,0,0,0-1.023,1.2q.05,5.164.081,10.328c.006,1.138-.04,2.277-.032,3.415,0,.462-.227.573-.622.576-1.009.007-2.016.031-3.027-.035-.512-.034-.684-.251-.688-.7-.012-1.06-.016-2.121-.022-3.181q-.04-6.834-.078-13.668c-.005-1.217.045-1.265,1.273-1.259.776,0,1.552.04,2.327.077C232.838,291.885,232.838,291.894,232.994,292.66Z" transform="translate(-227.335 -5.896)" />
                <path d="M30.565,301.4c0-.928.037-2.221-.007-3.512-.129-3.794,2.339-5.3,5.207-5.408a11.718,11.718,0,0,1,3.079.321,4.541,4.541,0,0,1,3.086,3.631,21.165,21.165,0,0,1,.127,2.395c0,.97-.327,1.327-1.29,1.384-.9.054-1.812.013-2.717.041-.44.013-.512-.207-.5-.576.029-.749.038-1.5.039-2.248a2.124,2.124,0,0,0-.292-1.113,1.229,1.229,0,0,0-1.41-.572.963.963,0,0,0-.785,1.025,33.712,33.712,0,0,0,.081,5.1,8,8,0,0,1-.032,2c-.073,1.042.174,2.056.089,3.089a1.317,1.317,0,0,0,.187.659,1.2,1.2,0,0,0,1.212.676,1.089,1.089,0,0,0,.97-.876,5.388,5.388,0,0,0,.053-2.079c-.1-1.369.033-1.518,1.415-1.539.751-.011,1.5-.02,2.251-.045.534-.018.832.2.848.756a13.169,13.169,0,0,1-.351,4.159,3.933,3.933,0,0,1-3.385,2.718,11.455,11.455,0,0,1-4.018.02c-2.143-.378-3.487-2.1-3.645-4.674-.051-.826-.033-1.656-.064-2.483S30.63,302.588,30.565,301.4Z" transform="translate(-95.212 -6.482)" />
                <path d="M-22.012,299.062c0-2.53-.075-5.063.029-7.589.06-1.477-.1-2.955.109-4.438a14.025,14.025,0,0,0-.152-1.836c0-.532.149-.822.751-.8,1.008.035,2.018.031,3.026.019.711-.009.847.387.846,1,0,1.52-.173,3.031-.138,4.555.079,3.37.1,6.742.139,10.112.02,1.678.035,3.356.037,5.034,0,.92-.244,1.134-1.163,1.112-.853-.02-1.707-.061-2.558-.03-.69.025-.974-.2-.961-.931.037-2.068.013-4.138.013-6.207Z" transform="translate(-60.112 -1.097)" />
                <path d="M123.225,296.5c0-1.681.012-3.363-.007-5.044-.006-.55.17-.873.755-.755.649.131,1.42-.377,1.961.385.086.121.268-.078.4-.145,1.857-.941,3.283-.164,3.544,1.909a34.629,34.629,0,0,1,.037,4.338c0,1.422.031,2.845.068,4.267.014.542-.145.812-.752.766-1.557-.118-2.041.408-1.916-1.975.111-2.139-.021-4.292-.054-6.438a2.814,2.814,0,0,0-.1-.685.483.483,0,0,0-.558-.418c-.3.033-.578.1-.633.45a4.7,4.7,0,0,0-.054.77c.017,2.483.023,4.966.072,7.449.012.582-.174.763-.745.755-2.391-.036-1.863.223-1.922-1.827-.037-1.266-.007-2.534-.007-3.8Z" transform="translate(-157.046 -5.197)" />
                <path d="M115.784,297.311c0,1.574-.035,3.15.016,4.723.022.684-.236.888-.856.828a5.446,5.446,0,0,0-.849-.024c-1.047.064-1.207-.077-1.141-1.094.191-2.944.1-5.891.074-8.837,0-.434-.209-.963.367-1.222a3.245,3.245,0,0,1,2.178.239c.212.217.147.483.149.734,0,.776-.005,1.552-.007,2.328s0,1.551,0,2.327Z" transform="translate(-150.189 -5.896)" />
                <path d="M121.33,329.146c1.505-.5,2.172-.069,2.223,1.465.047,1.419-.01,2.841.024,4.261.013.57-.315.548-.694.538s-.8.05-.794-.56c.006-1.339-.019-2.678-.036-4.017,0-.3.054-.707-.383-.712-.469-.006-.361.422-.36.707,0,1.265.011,2.53.054,3.794.02.57-.168.777-.757.743-.5-.029-.792-.06-.777-.707.044-1.936.028-3.874-.005-5.811-.009-.528.068-.808.685-.8.592.009.874.2.785.814A1.276,1.276,0,0,0,121.33,329.146Z" transform="translate(-154.782 -30.223)" />
                <path d="M112.372,332.475c0-.491.019-.983-.007-1.473-.02-.37.194-.845-.372-1.024-.019-.006-.032-.039-.043-.061-.192-.389.373-1.768.8-1.84.335-.057.928-.364.977-.078.109.634.7,1.264.345,1.871a2.394,2.394,0,0,0-.257,1.308c-.015.724,0,1.448,0,2.172,0,.225-.063.466.167.641a.812.812,0,0,1,.132,1.117c-.208.358-.7.274-1.076.211a.762.762,0,0,1-.662-.828C112.366,333.818,112.372,333.147,112.372,332.475Z" transform="translate(-149.501 -30.111)" />
                <path d="M114.319,287c-.206,0-.413-.012-.618,0-.525.037-.828-.139-.85-.725-.022-.569.226-.812.77-.805.386.005.774,0,1.159.027.592.039.977.279.912.965s-.572.513-.986.525c-.129,0-.258,0-.387,0Z" transform="translate(-150.127 -1.814)" />
                <path d="M-100.347,302.276c-.059-1.914-.1-3.826-.3-5.734a28.408,28.408,0,0,0-2.662-9.257,2.023,2.023,0,0,0-2.3-1.382,5.589,5.589,0,0,1-1.624-.006c-1.037-.162-1.441.491-1.846,1.242a22.187,22.187,0,0,0-2.417,8.062c-.256,2.181-.387,4.37-.483,6.556a37.542,37.542,0,0,0-.095,5.116c.037.4.126.49.469.472,1.031-.052,2.056.105,3.1.031a1.075,1.075,0,0,0,1.155-1.148c.047-.643,0-1.292,0-1.939,0-.227-.07-.5.289-.513.569-.02,1.139-.029,1.708-.035.308,0,.291.228.3.436.031.883.084,1.766.082,2.65,0,.445.19.608.6.608,1.139,0,2.278,0,3.417,0,.45,0,.629-.184.621-.659C-100.363,305.278-100.347,303.777-100.347,302.276Zm-5.577-2.54a.909.909,0,0,0-.454.047.693.693,0,0,1-.947-.541,29.909,29.909,0,0,1,.715-7.812.932.932,0,0,1,.458-.764c.275,1.676.953,3.165.856,4.842a30.593,30.593,0,0,0,.148,3.406C-105.118,299.467-105.258,299.835-105.924,299.736Z" transform="translate(0 -2.08)" />
                <path d="M79.852,301.129q-1.747.01-3.493,0c-.589,0-.847.283-.829.863.022.7.039,1.4.035,2.1,0,.844-.45,1.382-1.127,1.4a1.3,1.3,0,0,1-1.347-1.319c-.032-1.466.027-2.934.033-4.4,0-.465.248-.541.644-.531.853.021,1.707.006,2.562.005s1.709.023,2.562-.006c1.175-.04,1.682-.6,1.64-1.77-.024-.67,0-1.343-.016-2.01A5.445,5.445,0,0,0,78.262,291c-1.767-1.3-3.771-1.263-5.8-.938a4.1,4.1,0,0,0-3.471,3.131,12.168,12.168,0,0,0-.426,3.756c.046,2.3.169,4.592.046,6.888a4.119,4.119,0,0,0,3.23,4.491,13.144,13.144,0,0,0,4.235.306,5.339,5.339,0,0,0,3.085-1.325,2.877,2.877,0,0,0,1.005-1.531,14.33,14.33,0,0,0,.348-3.995C80.5,301.321,80.3,301.127,79.852,301.129Zm-6.7-6.1c0-.257,0-.514,0-.771a1.076,1.076,0,0,1,1.081-1.164,1.1,1.1,0,0,1,1.28.968,12.494,12.494,0,0,1,.045,1.922c0,.166-.07.319-.253.33-.615.039-1.23.074-1.845.081-.263,0-.314-.212-.31-.44C73.161,295.642,73.157,295.333,73.157,295.025Z" transform="translate(-120.573 -4.749)" />
                <path d="M-48.757,288.879c-.313-3.383-1.791-4.736-5.19-4.894-1.958-.091-3.928.1-5.892.1-.759,0-.985.329-1.04,1.007-.082,1.014.123,2.012.11,3.02-.019,1.493-.16,3-.03,4.478.184,2.1-.072,4.185.106,5.991,0,1.525,0,2.767,0,4.009,0,.749,0,1.5.043,2.247.029.452.176.91.75.914,1.112.008,2.224-.023,3.336-.036.439-.005.629-.221.688-.661a14.057,14.057,0,0,0,.058-2.245c-.054-2.095-.071-4.19-.114-6.285-.011-.558.215-.781.786-.773.671.009,1.343-.064,2.014-.111,2.779-.193,4.248-1.665,4.392-4.436A16.246,16.246,0,0,0-48.757,288.879Zm-4.587,1.97c-.376,1.128-1.051,1.367-2.232,1.22-.516-.065-.336-.519-.417-.789a3.567,3.567,0,0,1-.021-1l-.048,0c.047-.46.07-.924.15-1.378.059-.333-.215-.818.2-.974a2.04,2.04,0,0,1,1.441.018A2.335,2.335,0,0,1-53.345,290.849Z" transform="translate(-34.187 -0.805)" />
                <path d="M5.064,302.865a10.844,10.844,0,0,1-.017-2.477,11.816,11.816,0,0,0,.08-2.632c-.185-2.817-1.344-4.323-3.781-4.873a9.3,9.3,0,0,0-3.09.021A4.485,4.485,0,0,0-5.711,297.2a.927.927,0,0,0,.812,1.108,6.444,6.444,0,0,0,2.161.058,1.183,1.183,0,0,0,1.2-1.254c.01-.468.849-1.313,1.295-1.261a1.386,1.386,0,0,1,1.315.907c.2.636.39,1.254-.308,1.736a9.315,9.315,0,0,1-2.009,1,9.289,9.289,0,0,0-3.135,1.961A3.767,3.767,0,0,0-5.6,304.127a19.271,19.271,0,0,0,.247,4.432c.414,2.109.878,3.058,3.495,3.126a4.28,4.28,0,0,0,2.915-1.144c.1.472,0,.96.659.929.873-.041,1.748-.028,2.622-.032.46,0,.663-.18.72-.682A42.465,42.465,0,0,0,5.064,302.865ZM1.092,304.7c-.029.851-.089,1.7-.141,2.552a1.192,1.192,0,0,1-1.324,1.2c-.736-.052-.911-.554-.872-1.2.021-.36,0-.722,0-1.083a7.489,7.489,0,0,1-.011-1.933A2.594,2.594,0,0,1,.5,301.981c.475-.2.614-.051.613.391C1.111,303.147,1.118,303.922,1.092,304.7Z" transform="translate(-71.01 -6.676)" />
                <path d="M135.96,333.724c-.092-.769-.678-.345-1.031-.391-.651-.086-.467.445-.488.8-.014.232.02.482-.252.6a.33.33,0,0,1-.422-.095,2.714,2.714,0,0,1-.109-1.738c.061-.4.52-.206.8-.21,1.823-.023,1.484.146,1.5-1.544.011-1-.594-1.537-1.691-1.644a1.714,1.714,0,0,0-2.081,1.284,8.491,8.491,0,0,0-.1,1.947c0,.37.012.6,0,.835-.109,1.862.489,2.438,2.652,2.249C135.63,335.737,136.1,334.866,135.96,333.724Zm-1.939-3.127c.415-.014.441.343.47.653.031.378-.171.49-.513.491-.4,0-.358-.266-.366-.524C133.6,330.908,133.668,330.608,134.021,330.6Z" transform="translate(-162.953 -31.181)" />
            </g>
        </svg>