<svg width="210" height="33" viewBox="0 0 210 33" fill="none" xmlns="http://www.w3.org/2000/svg">
<path d="M112.647 17.3188C112.647 15.8965 112.356 14.6932 111.778 13.7105C111.197 12.7245 110.356 11.964 109.249 11.4273C108.145 10.8907 106.805 10.624 105.228 10.624C103.959 10.624 102.783 10.8545 101.7 11.3137C100.617 11.7714 99.7415 12.4298 99.0748 13.2825C98.4065 14.1352 98.0081 15.1525 97.8764 16.3344H101.75C101.903 15.5031 102.296 14.8809 102.93 14.4628C103.565 14.0496 104.331 13.8405 105.228 13.8405C106.038 13.8405 106.695 13.9887 107.198 14.2833C107.7 14.5796 108.077 15.0159 108.331 15.5969C108.583 16.1764 108.708 16.904 108.708 17.7797H104.538C102.986 17.7797 101.684 17.992 100.634 18.4184C99.5834 18.8464 98.7884 19.4423 98.2534 20.2077C97.7167 20.9748 97.4501 21.8719 97.4501 22.8991C97.4501 23.8193 97.669 24.6621 98.1052 25.4275C98.5431 26.1946 99.2164 26.8054 100.125 27.2663C101.032 27.7255 102.155 27.956 103.488 27.956C104.189 27.956 104.813 27.877 105.361 27.7255C105.908 27.5724 106.405 27.3584 106.853 27.0852C107.302 26.8119 107.697 26.4942 108.036 26.1337C108.375 25.7716 108.654 25.3732 108.872 24.9354L109.266 27.5609H112.647V17.3188ZM108.578 20.3723C108.533 20.9633 108.408 21.5279 108.199 22.0629C107.992 22.5995 107.712 23.0802 107.361 23.5082C107.011 23.9329 106.586 24.2605 106.082 24.4909C105.577 24.7214 105.011 24.8366 104.375 24.8366C103.827 24.8366 103.342 24.7494 102.914 24.5749C102.489 24.4004 102.16 24.1469 101.931 23.8193C101.7 23.4917 101.585 23.0851 101.585 22.6045C101.585 22.1238 101.705 21.7452 101.947 21.4061C102.186 21.067 102.553 20.7987 103.047 20.6028C103.539 20.4052 104.178 20.3081 104.966 20.3081H108.578V20.3723Z" fill="#085143"/>
<path d="M127.878 26.2802C129.289 25.1757 130.193 23.7041 130.586 21.8654H126.451C126.32 22.4349 126.068 22.9205 125.696 23.3255C125.324 23.7304 124.876 24.0432 124.351 24.2605C123.826 24.4794 123.256 24.5897 122.644 24.5897C122.031 24.5897 121.462 24.4695 120.937 24.2292C120.412 23.9889 119.946 23.6448 119.543 23.1954C119.138 22.7477 118.825 22.1896 118.608 21.5213C118.389 20.8546 118.28 20.1057 118.28 19.2727C118.28 18.1353 118.471 17.1723 118.854 16.3838C119.236 15.597 119.761 14.9994 120.43 14.5945C121.096 14.1895 121.836 13.987 122.645 13.987C123.587 13.987 124.402 14.2224 125.092 14.6932C125.781 15.164 126.234 15.8258 126.453 16.6785H130.588C130.216 14.7969 129.325 13.3138 127.913 12.2306C126.502 11.1475 124.757 10.6059 122.678 10.6059C121.037 10.6059 119.582 10.973 118.313 11.7055C117.044 12.4381 116.053 13.4619 115.343 14.7739C114.632 16.0875 114.277 17.6085 114.277 19.3353C114.277 21.0621 114.632 22.481 115.343 23.7831C116.054 25.0852 117.044 26.1025 118.313 26.835C119.582 27.5675 121.037 27.9346 122.678 27.9346C124.734 27.9346 126.469 27.3815 127.88 26.277L127.878 26.2802Z" fill="#085143"/>
<path d="M173.035 18.4365C172.093 18.0974 171.01 17.8192 169.785 17.6003C168.997 17.4472 168.347 17.2661 167.833 17.0587C167.318 16.8513 166.924 16.6159 166.651 16.3525C166.376 16.0908 166.241 15.7846 166.241 15.434C166.241 14.9088 166.465 14.4874 166.913 14.1697C167.362 13.8537 168.013 13.694 168.867 13.694C169.721 13.694 170.36 13.8636 170.852 14.2027C171.344 14.5418 171.655 15.0175 171.787 15.6298H175.529C175.31 14.0331 174.636 12.7969 173.511 11.9228C172.383 11.0471 170.845 10.6092 168.9 10.6092C167.565 10.6092 166.399 10.8281 165.403 11.266C164.408 11.7039 163.654 12.3113 163.138 13.0866C162.625 13.8636 162.368 14.7344 162.368 15.6957C162.368 16.4842 162.542 17.1509 162.893 17.6974C163.242 18.2455 163.708 18.6999 164.287 19.0604C164.867 19.4209 165.53 19.7122 166.274 19.9295C167.017 20.1484 167.761 20.3344 168.505 20.4875C169.293 20.6192 169.955 20.7723 170.492 20.9468C171.027 21.1229 171.431 21.3468 171.705 21.6201C171.978 21.8933 172.116 22.3049 172.116 22.8514C172.116 23.202 172.011 23.5296 171.804 23.8357C171.596 24.1419 171.29 24.3888 170.885 24.5748C170.48 24.7609 169.95 24.853 169.293 24.853C168.636 24.853 168.034 24.7378 167.553 24.509C167.073 24.2785 166.678 23.979 166.371 23.6053C166.106 23.2826 165.924 22.9304 165.822 22.5419H161.864C161.993 23.5592 162.353 24.4613 162.942 25.2465C163.566 26.0794 164.414 26.7346 165.486 27.2169C166.557 27.6975 167.838 27.9379 169.326 27.9379C170.725 27.9379 171.929 27.714 172.936 27.2646C173.942 26.8169 174.719 26.193 175.265 25.3946C175.813 24.5962 176.087 23.6613 176.087 22.588C176.087 21.4291 175.813 20.532 175.265 19.8966C174.719 19.2628 173.975 18.7756 173.035 18.4365Z" fill="#085143"/>
<path d="M154.694 24.0909C154.091 24.4843 153.331 24.6802 152.412 24.6802C151.559 24.6802 150.804 24.4843 150.147 24.0909C149.49 23.6958 148.972 23.1329 148.588 22.4003C148.264 21.7798 148.078 21.0505 148.029 20.2176H160.421C160.463 19.9114 160.486 18.6752 160.486 18.6752C160.486 17.1443 160.152 15.7764 159.484 14.5731C158.817 13.3698 157.887 12.4068 156.695 11.6841C155.502 10.9615 154.096 10.601 152.478 10.601C150.86 10.601 149.354 10.973 148.096 11.7171C146.838 12.4611 145.864 13.4899 145.176 14.8019C144.486 16.1155 144.142 17.6365 144.142 19.3633C144.142 21.09 144.491 22.537 145.192 23.8275C145.892 25.1181 146.865 26.1255 148.113 26.8465C149.36 27.5692 150.804 27.9297 152.445 27.9297C153.736 27.9297 154.895 27.6943 155.923 27.2251C156.952 26.7543 157.821 26.109 158.532 25.2876C159.244 24.4679 159.731 23.5543 159.993 22.5469H155.989C155.726 23.1823 155.295 23.6958 154.694 24.0909ZM148.605 16.0332C148.998 15.3006 149.535 14.7476 150.213 14.3755C150.891 14.0035 151.635 13.8175 152.445 13.8175C153.583 13.8175 154.534 14.1681 155.299 14.8677C156.065 15.569 156.47 16.5089 156.514 17.6908H148.089C148.18 17.0587 148.351 16.5056 148.605 16.0332Z" fill="#085143"/>
<path d="M141.207 14.3113H141.82C143.166 14.3113 144.257 13.22 144.257 11.8734V10.6356H142.224C140.694 10.6356 139.528 10.9467 138.73 11.5706C137.931 12.1944 137.411 13.1195 137.171 14.3443H137.006V13.9508C137.006 13.0323 136.721 12.3162 136.154 11.801C135.584 11.2874 134.852 11.001 133.954 11.001H131.516V14.0496H132.19C132.889 14.0496 133.24 14.4101 133.24 15.1328V27.5494H137.171V18.8744C137.171 17.6266 137.52 16.555 138.221 15.6579C138.921 14.7607 139.917 14.313 141.207 14.313V14.3113Z" fill="#085143"/>
<path d="M12.0134 17.9624H17.9542C17.7567 19.8884 17.1114 21.4522 16.0167 22.6555C14.922 23.8588 13.3039 24.4613 11.159 24.4613C9.71538 24.4613 8.4561 24.1386 7.38448 23.4934C6.31286 22.8481 5.48157 21.9016 4.89061 20.6538C4.29966 19.4061 4.005 17.9196 4.005 16.1895C4.005 14.4595 4.29472 12.9681 4.87415 11.7088C5.45358 10.4512 6.30133 9.4882 7.4174 8.81987C8.53347 8.1532 9.86847 7.81904 11.4208 7.81904C12.973 7.81904 14.1945 8.13674 15.1459 8.77049C16.0974 9.40589 16.7377 10.2915 17.0653 11.429H21.495C20.9913 9.15404 19.8538 7.37623 18.0826 6.09555C16.3097 4.81487 14.0891 4.17618 11.4208 4.17618C9.07998 4.17618 7.05032 4.68483 5.33342 5.70213C3.61487 6.71943 2.29798 8.13015 1.3778 9.93594C0.459266 11.7401 0 13.8142 0 16.155C0 18.4957 0.447743 20.5814 1.34488 22.3411C2.24201 24.1024 3.49964 25.4753 5.11942 26.4597C6.7392 27.444 8.63059 27.9362 10.7969 27.9362C12.0002 27.9362 13.0455 27.7996 13.9311 27.5263C14.8167 27.2531 15.5887 26.8481 16.2455 26.3115C16.9023 25.7749 17.4818 25.1362 17.9855 24.3921L18.2801 27.5428H21.923V14.9731H12.0117V17.9591L12.0134 17.9624Z" fill="#085143"/>
<path d="M84.021 15.0405C84.6333 15.7846 84.9395 16.8677 84.9395 18.29V27.5461H88.8457V17.8966C88.8457 16.2998 88.5939 14.9648 88.0902 13.8932C87.5865 12.8216 86.8638 12.0051 85.9239 11.4471C84.9823 10.889 83.8448 10.6108 82.5115 10.6108C81.1781 10.6108 80.1049 10.8956 79.1633 11.4635C78.2217 12.0331 77.5007 12.7985 76.997 13.7615L76.7353 11.0043H73.2554V27.5461H77.1945V18.718C77.1945 17.6891 77.3756 16.8249 77.7361 16.1253C78.0966 15.4257 78.5838 14.8842 79.1962 14.5006C79.8086 14.1187 80.5082 13.9261 81.2966 13.9261C82.5 13.9261 83.407 14.2981 84.021 15.0422V15.0405Z" fill="#085143"/>
<path d="M48.0698 22.5469C47.8064 23.1823 47.3751 23.6958 46.7743 24.0909C46.1718 24.4843 45.4113 24.6802 44.4928 24.6802C43.6401 24.6802 42.8845 24.4843 42.2277 24.0909C41.5709 23.6958 41.0524 23.1329 40.6688 22.4003C40.3445 21.7798 40.1585 21.0505 40.1091 20.2176H52.5011C52.5439 19.9114 52.5669 18.6752 52.5669 18.6752C52.5669 17.1443 52.2328 15.7764 51.5645 14.5731C50.8978 13.3698 49.9677 12.4068 48.7759 11.6841C47.5825 10.9615 46.1767 10.601 44.5586 10.601C42.9405 10.601 41.4343 10.973 40.1766 11.7171C38.919 12.4611 37.9445 13.4899 37.2564 14.8019C36.5667 16.1155 36.2227 17.6365 36.2227 19.3633C36.2227 21.09 36.5716 22.537 37.2729 23.8275C37.9725 25.1181 38.9453 26.1255 40.1931 26.8465C41.4408 27.5692 42.8845 27.9297 44.5257 27.9297C45.8162 27.9297 46.9751 27.6943 48.0039 27.2251C49.0327 26.7543 49.9019 26.109 50.613 25.2876C51.3241 24.4679 51.8114 23.5543 52.0731 22.5469H48.0698ZM40.6853 16.0332C41.0787 15.3006 41.6153 14.7476 42.2935 14.3755C42.9717 14.0035 43.7158 13.8175 44.5257 13.8175C45.6631 13.8175 46.6146 14.1681 47.38 14.8677C48.1455 15.569 48.5504 16.5089 48.5949 17.6908H40.17C40.2606 17.0587 40.4318 16.5056 40.6853 16.0332Z" fill="#085143"/>
<path d="M36.3642 11.8734V10.6356H34.3313C32.8004 10.6356 31.6349 10.9467 30.8366 11.5706C30.0382 12.1944 29.518 13.1195 29.2777 14.3443H29.1131V13.9508C29.1131 13.0323 28.8283 12.3162 28.2604 11.801C27.6908 11.2874 26.9583 11.001 26.0612 11.001H23.6233V14.0496H24.2966C24.9962 14.0496 25.3468 14.4101 25.3468 15.1328V27.5494H29.2777V18.8744C29.2777 17.6266 29.6267 16.555 30.3279 15.6579C31.0275 14.7607 32.0234 14.313 33.314 14.313H33.9263C35.2729 14.313 36.3642 13.2216 36.3642 11.8751V11.8734Z" fill="#085143"/>
<path d="M66.8372 11.6841C65.6438 10.9615 64.238 10.601 62.6199 10.601C61.0017 10.601 59.4955 10.973 58.2379 11.7171C56.9803 12.4611 56.0058 13.4899 55.3177 14.8019C54.628 16.1155 54.2839 17.6365 54.2839 19.3633C54.2839 21.09 54.6329 22.537 55.3342 23.8275C56.0338 25.1181 57.0066 26.1255 58.2544 26.8465C59.5021 27.5692 60.9458 27.9297 62.587 27.9297C63.8775 27.9297 65.0364 27.6943 66.0652 27.2251C67.094 26.7543 67.9632 26.109 68.6743 25.2876C69.3854 24.4679 69.8727 23.5543 70.1344 22.5469H66.131C65.8677 23.1823 65.4364 23.6958 64.8355 24.0909C64.2331 24.4843 63.4726 24.6802 62.554 24.6802C61.7013 24.6802 60.9458 24.4843 60.289 24.0909C59.6322 23.6958 59.1136 23.1329 58.7301 22.4003C58.4058 21.7798 58.2198 21.0505 58.1704 20.2176H70.5624C70.6052 19.9114 70.6282 18.6752 70.6282 18.6752C70.6282 17.1443 70.2941 15.7764 69.6257 14.5731C68.9591 13.3698 68.029 12.4068 66.8372 11.6841ZM58.2313 17.6908C58.3219 17.0587 58.4931 16.5056 58.7466 16.0332C59.14 15.3006 59.6766 14.7476 60.3548 14.3755C61.033 14.0035 61.7771 13.8175 62.587 13.8175C63.7244 13.8175 64.6759 14.1681 65.4413 14.8677C66.2068 15.569 66.6117 16.5089 66.6561 17.6908H58.2313Z" fill="#085143"/>
<path d="M208.953 0.0213928H207.809C199.75 0.0213928 193.172 6.45277 192.978 14.4299C192.973 14.6274 193.132 14.7904 193.33 14.7904H195.555C195.746 14.7904 195.901 14.6389 195.906 14.4496C196.071 8.69478 200.385 3.95397 205.972 3.08975C206.184 3.05683 206.375 3.22309 206.375 3.43708V11.4603C206.375 13.8471 205.481 16.1221 203.857 17.8686C202.313 19.5279 200.346 20.5666 198.118 20.8135C197.941 20.8332 197.804 20.983 197.804 21.1625V23.3765C197.804 23.5856 197.985 23.7485 198.192 23.7271C201.144 23.4078 203.97 22.0448 206 19.8637C208.13 17.5739 209.304 14.5895 209.304 11.4619V0.373662C209.304 0.17942 209.146 0.023038 208.953 0.023038V0.0213928Z" fill="#C2FF06"/>
<path d="M202.484 29.2038C200.772 29.1215 199.174 28.4153 197.954 27.1938C196.653 25.8934 195.937 24.1633 195.937 22.323V21.1641C195.937 21.0012 195.825 20.8596 195.666 20.8217L194.806 20.6209C192.777 20.1452 190.935 18.9814 189.621 17.3435C188.27 15.6595 187.554 13.6233 187.554 11.4586V3.41569C187.554 3.2017 187.745 3.03544 187.955 3.06836C189.88 3.36631 191.684 4.12681 193.262 5.31696C193.414 5.43219 193.629 5.40585 193.75 5.25605L195.139 3.51611C195.262 3.36137 195.234 3.13585 195.076 3.01733C193.863 2.09551 192.523 1.36957 191.091 0.859273C189.491 0.289717 187.812 0 186.1 0H184.977C184.783 0 184.627 0.158028 184.627 0.350624V11.4603C184.627 14.2587 185.59 16.9994 187.338 19.1789C188.773 20.9682 190.693 22.3263 192.834 23.0901C192.959 23.1345 193.048 23.2481 193.063 23.3814C193.299 25.6037 194.278 27.663 195.881 29.2647C197.649 31.0326 199.974 32.0433 202.459 32.1338C202.657 32.1404 202.821 31.9808 202.821 31.7816V29.5544C202.821 29.3651 202.672 29.212 202.482 29.2038H202.484Z" fill="#C2FF06"/>
</svg>
