<svg width="126" height="34" viewBox="0 0 126 34" fill="none" xmlns="http://www.w3.org/2000/svg">
<path d="M95.2517 27.9114C93.9914 27.9114 93.21 27.0369 93.21 25.8877V16.8932C93.21 13.8201 93.8905 11.9462 95.655 10.2473C97.1422 8.79819 99.6881 7.94871 101.553 8.07364C102.688 8.14859 103.519 8.87314 103.469 10.0724C103.444 11.2467 102.562 11.9962 101.427 11.9462C100.419 11.9213 99.2596 12.346 98.579 13.0206C97.722 13.8451 97.3187 14.9444 97.3187 16.7683V25.8627C97.2934 27.0369 96.512 27.9114 95.2517 27.9114Z" fill="#121880"/>
<path d="M51.6184 25.1381C50.4841 21.4404 48.3163 19.2167 46.6778 17.9175C45.8964 17.2929 44.8378 16.5934 43.7287 16.0937C44.7117 15.2192 48.0894 12.1961 48.6692 11.5964C49.4758 10.747 49.5514 9.5477 48.77 8.72321C47.913 7.77379 46.7283 7.87373 45.7956 8.62327C45.1654 9.14795 41.2584 12.9206 39.3427 14.7695V2.62696C39.3427 1.45269 38.5361 0.553242 37.2757 0.553242C35.9902 0.528258 35.1836 1.4277 35.1836 2.62696V25.8127C35.1836 26.987 35.9902 27.8864 37.2757 27.8864C38.5613 27.8864 39.3427 26.987 39.3427 25.8127V18.9169C39.5191 18.9169 39.6452 18.9419 39.8468 18.9419C42.1658 19.1918 46.0477 21.5903 47.5853 26.3873C48.0138 27.6865 49.2237 28.0863 50.232 27.7865C51.3663 27.4617 52.0217 26.3873 51.6184 25.1381Z" fill="#121880"/>
<path d="M69.5155 8.22291C68.3812 7.74821 67.3226 8.19793 66.8688 9.29725C66.8184 9.39719 63.4407 17.3923 61.3738 22.0394L55.5762 9.24728C55.1225 8.2479 53.9882 7.69824 52.8287 8.22291C51.6944 8.74759 51.3667 9.8719 51.7952 10.9462L59.1304 26.8115C58.5002 27.9358 58.0969 28.3855 57.5424 28.7353C57.1391 28.9851 56.6601 29.16 55.3242 29.16C54.2403 29.135 53.4589 29.8596 53.4589 31.1088C53.4589 32.3331 54.3915 33.0326 55.4754 33.0826C57.1895 33.1825 58.5506 32.8827 59.7606 32.1082C61.5502 30.9839 62.3316 29.3599 63.592 26.7365C64.7767 24.263 70.2969 11.4709 70.549 10.8713C71.0531 9.79694 70.6498 8.69762 69.5155 8.22291Z" fill="#121880"/>
<path d="M90.1603 14.8446C89.3537 10.947 85.6231 7.92383 81.2119 7.92383C76.1958 7.92383 71.709 11.8214 71.709 17.9926C71.709 20.7909 72.692 23.4143 74.4565 25.2631C76.1958 27.087 78.8173 28.0364 81.464 28.0364C83.7326 28.0364 85.9256 27.4868 87.4632 26.4624C88.3706 25.8628 88.7235 24.8384 88.2194 23.864C87.6396 22.7397 86.5053 22.5148 85.5475 23.0645C84.2871 23.7391 83.1528 24.2887 81.4136 24.2887C78.9685 24.2887 76.9016 22.8396 76.0949 20.3162C79.0441 19.7415 86.2785 18.3174 87.8665 17.9926C89.6309 17.5929 90.5132 16.4686 90.1603 14.8446ZM75.8681 16.5935C76.3218 13.7452 78.1871 11.6715 81.2371 11.6715C83.3293 11.6715 85.1189 12.8708 85.9004 14.6197L75.8681 16.5935Z" fill="#121880"/>
<path d="M115.165 7.74805C109.342 7.74805 104.83 12.2203 104.83 17.9917C104.83 23.7632 109.342 28.2354 115.165 28.2354C120.988 28.2354 125.5 23.7632 125.5 17.9917C125.5 12.2203 120.988 7.74805 115.165 7.74805ZM115.165 24.4378C111.661 24.4378 108.939 21.6395 108.939 17.9917C108.939 14.344 111.636 11.5457 115.165 11.5457C118.669 11.5457 121.391 14.344 121.391 17.9917C121.391 21.6145 118.669 24.4378 115.165 24.4378Z" fill="#121880"/>
<path d="M14.9691 8.09863C13.6079 8.09863 12.3476 8.4734 11.2637 9.09802C11.5914 10.1224 11.7678 11.2467 11.7678 12.371C11.7678 12.9706 11.7174 13.5703 11.6166 14.1449C14.112 16.1437 15.8261 19.0419 16.2798 22.3648C19.6827 21.7902 22.2286 18.842 22.2286 15.3192C22.2286 11.3216 18.9769 8.09863 14.9691 8.09863Z" fill="#FFB100"/>
<path d="M9.65067 2.22793C9.80191 1.9531 10.0288 1.82818 10.5077 1.65328C10.9866 1.47839 11.2387 1.45341 11.516 1.60331C11.7932 1.72824 11.9193 1.90313 12.0705 2.32787C12.1713 2.65267 12.8519 5.12614 12.9275 5.60085C13.0788 6.25045 12.7511 6.65021 12.1965 6.8251C11.642 7.02497 11.1631 6.87507 10.8858 6.25045C10.6841 5.80073 9.7515 3.40221 9.62547 3.07741C9.52464 2.70264 9.52464 2.47778 9.65067 2.22793Z" fill="#FFB100"/>
<path d="M18.4226 1.62784C18.6998 1.50291 18.9771 1.5279 19.456 1.67781C19.935 1.82771 20.1618 1.95264 20.3131 2.22747C20.4643 2.5023 20.4643 2.70217 20.3131 3.12691C20.187 3.45171 19.2796 5.85023 19.0527 6.27497C18.7755 6.8746 18.2965 7.02451 17.742 6.84962C17.1874 6.67473 16.8598 6.29996 17.0362 5.62537C17.137 5.15067 17.7924 2.65221 17.8932 2.32741C18.0445 1.92765 18.1705 1.75276 18.4226 1.62784Z" fill="#FFB100"/>
<path d="M25.8839 6.24996C26.1864 6.29993 26.3881 6.49981 26.6905 6.89956C26.993 7.29932 27.0939 7.52418 27.0686 7.82399C27.0182 8.12381 26.8922 8.2987 26.5393 8.57353C26.262 8.77341 24.0943 10.1725 23.6657 10.3974C23.086 10.7222 22.6071 10.5723 22.2794 10.0976C21.9265 9.62289 21.9013 9.14818 22.4306 8.69846C22.8087 8.37366 24.8 6.74966 25.0773 6.5248C25.405 6.27495 25.6067 6.2 25.8839 6.24996Z" fill="#FFB100"/>
<path d="M29.1862 14.3453C29.413 14.5702 29.4382 14.82 29.4634 15.3447C29.4886 15.8444 29.413 16.0942 29.2114 16.3191C29.0097 16.5439 28.808 16.5939 28.3291 16.6189C27.9762 16.6189 25.4051 16.469 24.901 16.419C24.2204 16.3441 23.9432 15.9443 23.9684 15.3697C23.9684 14.795 24.2204 14.3703 24.9262 14.3203C25.4304 14.2703 28.0014 14.1204 28.3543 14.0955C28.7576 14.0705 28.9845 14.1454 29.1862 14.3453Z" fill="#FFB100"/>
<path d="M27.0427 22.7897C27.0679 23.0896 26.9671 23.3394 26.6646 23.7392C26.3873 24.1639 26.1857 24.3138 25.8832 24.3888C25.5807 24.4387 25.3791 24.3638 25.001 24.1139C24.7237 23.9141 22.7072 22.2901 22.3543 21.9653C21.8501 21.5155 21.8753 21.0158 22.2282 20.5661C22.5559 20.0914 23.0348 19.9165 23.6146 20.2663C24.0431 20.5161 26.2361 21.8903 26.5134 22.0902C26.8663 22.34 26.9923 22.5149 27.0427 22.7897Z" fill="#FFB100"/>
<path d="M20.2874 28.3862C20.1361 28.661 19.9093 28.7859 19.4304 28.9608C18.9514 29.1357 18.6994 29.1607 18.4221 29.0108C18.1448 28.8859 18.0188 28.711 17.8675 28.2862C17.7667 27.9614 17.0861 25.488 17.0105 25.0133C16.8593 24.3637 17.187 23.9639 17.7415 23.789C18.2961 23.5891 18.775 23.739 19.0523 24.3637C19.2539 24.8134 20.2118 27.2119 20.3126 27.5367C20.4386 27.9115 20.4134 28.1363 20.2874 28.3862Z" fill="#FFB100"/>
<path d="M10.0533 14.7693C10.255 13.9948 10.3558 13.1953 10.3558 12.3958C10.3558 8.94792 8.49052 5.94977 5.69258 4.30078C5.13803 4.7505 4.6339 5.2502 4.15497 5.77487C6.62523 6.99912 8.31408 9.49758 8.31408 12.3958C8.31408 12.8455 8.26366 13.2952 8.18804 13.745C7.75953 13.5701 7.33101 13.3952 6.87729 13.2703C6.92771 12.9954 6.95291 12.6956 6.95291 12.4208C6.95291 9.9473 5.44051 7.82361 3.27274 6.8742C2.86943 7.42386 2.51654 7.9985 2.18885 8.59813C3.77687 9.14779 4.93638 10.6469 4.93638 12.4208C4.93638 12.5707 4.93638 12.7206 4.91117 12.8705C4.48266 12.8205 4.05414 12.7955 3.60042 12.7955C3.57522 12.7955 3.55001 12.7955 3.5248 12.7955C3.55001 12.6706 3.55001 12.5457 3.55001 12.4208C3.55001 11.1965 2.71819 10.1722 1.58389 9.87235C1.33182 10.472 1.10496 11.0966 0.95372 11.7462C1.28141 11.7962 1.55868 12.071 1.55868 12.4208C1.55868 12.7955 1.2562 13.1203 0.852894 13.1203C0.777274 13.1203 0.72686 13.1203 0.676447 13.0954C0.676447 13.1203 0.676447 13.1703 0.65124 13.1953C0.626033 13.2952 0.626033 13.3702 0.626033 13.4701C0.626033 13.5201 0.600827 13.5701 0.600827 13.62C0.525207 14.1447 0.5 14.7194 0.5 15.319C0.5 15.319 0.5 15.319 0.5 15.344C1.45785 14.9942 2.51654 14.7943 3.60042 14.7943C8.74259 14.7943 12.9269 18.9418 12.9269 24.0386C12.9269 25.9374 12.3471 27.7114 11.3389 29.1854C12.0447 29.3603 12.7505 29.4853 13.5067 29.5602C14.4393 27.9362 14.9686 26.0374 14.9686 24.0136C14.9686 20.191 13.0025 16.7931 10.0533 14.7693Z" fill="#9FACD9"/>
<path d="M3.60037 16.543C2.54169 16.543 1.53342 16.7678 0.625977 17.1426C0.726803 17.8422 0.852837 18.5168 1.02928 19.1664C1.78548 18.7666 2.66772 18.5417 3.60037 18.5417C6.67558 18.5417 9.17105 21.0152 9.17105 24.0633C9.17105 25.4875 8.64171 26.7617 7.73427 27.7361C8.33923 28.0859 8.94419 28.3857 9.59956 28.6355C10.5826 27.3613 11.1876 25.7873 11.1876 24.0633C11.1624 19.9159 7.78468 16.543 3.60037 16.543Z" fill="#9FACD9"/>
<path d="M3.59991 20.291C2.86892 20.291 2.18834 20.4909 1.63379 20.8407C1.88586 21.4653 2.18834 22.0649 2.54123 22.6146C2.84371 22.3897 3.22181 22.2648 3.59991 22.2648C4.58297 22.2648 5.38959 23.0643 5.38959 24.0387C5.38959 24.5884 5.13752 25.0881 4.70901 25.4129C5.18793 25.8876 5.69207 26.3123 6.22141 26.737C6.92719 26.0625 7.38091 25.0881 7.38091 24.0387C7.38091 21.965 5.69207 20.291 3.59991 20.291Z" fill="#9FACD9"/>
</svg>
