<svg viewBox="0 0 125.003 24.496" xmlns="http://www.w3.org/2000/svg" width="125.003" height="24.496"><path d="M112.058.051c-.821.191-1.6.795-1.998 1.537-.206.392-.37 1.033-.37 1.452 0 1.367.974 2.618 2.315 2.967.392.101 1.129.101 1.52 0 1.326-.344 2.311-1.61 2.311-2.967s-.985-2.623-2.31-2.962c-.355-.09-1.134-.106-1.468-.027zM106.271 4.063a2.244 2.244 0 00-1.367 1.218c-.286.615-.26 1.31.074 1.982.26.52.96.996 1.617 1.102.922.149 1.902-.37 2.32-1.234.462-.954.144-2.162-.736-2.766-.54-.377-1.335-.498-1.908-.302z" fill="#ffde00"/><path d="M10.704 15.546v8.346h4.923l.016-3.567c.016-3.206.026-3.592.11-3.879.197-.657.494-1.043.96-1.25.217-.096.371-.122.774-.122.455-.005.535.01.821.154.36.18.61.492.72.911.048.19.075 1.198.085 4l.022 3.753h4.928l-.021-4.256c-.022-4.048-.027-4.276-.133-4.832-.17-.896-.36-1.378-.752-1.908a4.559 4.559 0 00-1.134-1.028c-1.092-.652-2.788-.81-4.165-.397-.737.222-1.304.556-1.903 1.112l-.323.297V7.2h-4.928v8.346zM25.806 8.657v1.457h4.981V7.2h-4.98v1.457zM47.585 15.546v8.346h4.928v-3.577l.413-.414.414-.408 1.34 2.2 1.346 2.199h2.91c2.315 0 2.903-.016 2.872-.07-.022-.031-1.182-1.77-2.576-3.857s-2.533-3.82-2.533-3.852 1.012-1.055 2.252-2.274c1.24-1.224 2.252-2.241 2.252-2.257 0-.021-1.234-.032-2.74-.027l-2.739.016-1.59 1.866-1.594 1.865-.016-4.049-.01-4.053h-4.929v8.346zM4.186 8.673l-2.41 1.425-.017.72-.016.727-.858.01-.859.016-.015 1.415L0 14.406H1.743l.022 3.535c.02 3.932.02 3.926.381 4.663.424.858 1.219 1.293 2.65 1.452.535.063 3.274.032 3.91-.037l.302-.037v-3.524l-.779-.021c-.657-.016-.821-.038-1.028-.128-.318-.148-.466-.365-.53-.779-.026-.18-.047-1.41-.047-2.729v-2.395h2.331V11.545H6.624l-.01-2.146-.017-2.152-2.41 1.426z" fill="#4382ce"/><path d="M67.88 9.245c-1.77.16-3.18.715-4.038 1.595-.545.556-.853 1.07-1.06 1.802-.158.546-.169 1.812-.026 2.347.186.668.493 1.198.991 1.696.249.254.583.53.742.62.652.37 1.86.779 3.815 1.288 1.918.503 2.125.582 2.369.948.217.323.148.821-.154 1.102-.344.323-1.176.493-1.945.392-.853-.106-1.367-.487-1.579-1.15l-.09-.286h-4.541l.037.276c.19 1.484.964 2.755 2.157 3.54 1.15.757 2.464 1.086 4.356 1.08 2.257-.005 3.873-.487 5.002-1.494.98-.869 1.494-2.193 1.42-3.667-.058-1.134-.398-1.902-1.155-2.628-.822-.779-1.442-1.054-3.678-1.632-2.76-.715-2.951-.784-3.195-1.145-.106-.159-.122-.233-.106-.524.021-.313.037-.35.238-.54.287-.266.557-.34 1.262-.335.471.006.64.027.9.128.403.153.737.482.838.832l.074.254 2.215.016 2.21.01-.038-.302a5.404 5.404 0 00-.508-1.605c-.896-1.68-2.719-2.565-5.4-2.623-.482-.006-.98-.006-1.113.005zM76.66 9.621c-.02.016-.036 3.286-.036 7.26v7.222h4.663l.01-2.21.016-2.214 2.014-.032c1.595-.021 2.103-.048 2.443-.117 1.716-.36 2.803-1.144 3.439-2.48.604-1.282.63-3.327.058-4.62a4.277 4.277 0 00-2.03-2.104c-.884-.434-1.822-.615-3.592-.689-1.394-.058-6.931-.069-6.984-.016zm6.852 3.567c1.33.095 1.712.423 1.717 1.462 0 .615-.138.927-.498 1.15-.397.238-.832.302-2.21.302h-1.234v-1.447c0-.8.016-1.467.037-1.483.047-.053 1.415-.043 2.188.016zM93.257 9.727c-.026.085-1.176 3.344-2.554 7.25l-2.501 7.1 2.273.016c1.25.005 2.284.005 2.295-.005s.137-.44.291-.954l.27-.938h4.632l.17.599c.095.323.216.752.275.948l.106.36h2.3c1.266 0 2.305-.005 2.305-.015 0-.006-1.13-3.222-2.512-7.138a3627.07 3627.07 0 01-2.544-7.25l-.037-.116H93.31l-.053.143zm3.127 6.894c.381 1.32.694 2.433.694 2.475 0 .069-.207.08-1.431.08-1.108 0-1.43-.016-1.43-.07s1.324-4.615 1.409-4.853c.01-.043.032-.064.042-.053s.334 1.102.716 2.421zM104.55 16.844v7.26h4.768l-.01-7.25-.016-7.243-2.369-.016-2.374-.01v7.259zM111.332 16.844v7.26H115.799l-.037-4.097c-.016-2.246-.042-4.186-.058-4.302-.022-.143.037-.032.18.344.111.307.275.71.365.9.085.192 1.087 1.871 2.226 3.737l2.067 3.391 2.23.016 2.231.01V9.584l-2.21.01-2.214.017v3.921c0 2.157.016 4.112.037 4.345l.037.424-.186-.503c-.1-.276-.26-.684-.355-.901-.143-.313-3.386-5.75-4.202-7.037l-.18-.276h-4.398v7.26z" fill="#d1041d"/><path d="M40.696 11.28a5.436 5.436 0 00-2.533 1.028 6.11 6.11 0 00-.688.641l-.382.408v-1.812H32.642V23.892h4.875v-3.143c0-1.727.026-3.391.053-3.71.111-1.18.546-1.785 1.41-1.944.794-.148 1.5.111 1.78.652.26.509.265.62.291 4.499l.027 3.646h4.864v-3.938c0-4.16-.026-4.8-.238-5.632-.472-1.85-1.955-2.984-4.022-3.063a7.216 7.216 0 00-.986.02zM25.806 17.718v6.174h4.981l-.01-6.163-.016-6.158-2.475-.016-2.48-.01v6.173z" fill="#4382ce"/></svg>