<svg xmlns="http://www.w3.org/2000/svg" viewBox="1.1 16.78 309.66 50.6"><path fill="#e5005a" d="M57.344 25.438h6.872v28.954H57.46l-.353-4.229c-1.639 3.409-6.167 5.055-9.388 5.112-8.583.058-14.934-5.226-14.934-15.39 0-9.986 6.648-15.209 15.104-15.151 3.869 0 7.578 1.82 9.217 4.702l.238-3.998zM39.962 39.885c0 5.529 3.808 8.813 8.573 8.813 11.273 0 11.273-17.565 0-17.565-4.765 0-8.573 3.234-8.573 8.752M76.45 42.472c.477 3.584 3.581 6.164 8.636 6.164 2.639 0 6.104-.995 7.756-2.699l4.583 4.521c-3.062 3.175-8.053 4.702-12.457 4.702-9.984 0-15.923-6.17-15.923-15.448 0-8.81 5.997-15.156 15.4-15.156 9.688 0 15.742 5.993 14.625 17.917H76.45zm15.735-5.932c-.455-3.759-3.399-5.638-7.515-5.638-3.874 0-7.039 1.879-8.101 5.638h15.616zM125.574 54.392V39.239c0-4.406-2.406-7.753-6.99-7.753-4.405 0-7.403 3.702-7.403 8.104v14.802h-7.104V25.379h6.401l.473 3.937c2.936-2.88 5.869-4.348 9.514-4.348 6.812 0 12.269 5.107 12.269 14.217v15.207h-7.16zM163.764 50.697c-3.356 3.285-6.874 4.578-11.165 4.578-8.399 0-15.388-5.049-15.388-15.328 0-10.281 6.989-15.331 15.388-15.331 4.113 0 7.279 1.174 10.457 4.286l-4.521 4.755c-1.711-1.523-3.823-2.289-5.814-2.289-4.82 0-8.34 3.522-8.34 8.58 0 5.522 3.755 8.458 8.218 8.458 2.296 0 4.584-.649 6.348-2.411l4.817 4.702zM194.857 39.948c0 8.336-5.695 15.094-15.096 15.094-9.404 0-15.036-6.758-15.036-15.094 0-8.282 5.761-15.099 14.979-15.099 9.219 0 15.153 6.817 15.153 15.099m-22.97 0c0 4.401 2.646 8.513 7.875 8.513 5.22 0 7.871-4.112 7.871-8.513 0-4.35-3.065-8.581-7.871-8.581-5.178 0-7.875 4.231-7.875 8.581M221.083 54.392V39.239c0-4.406-2.401-7.753-6.992-7.753-4.401 0-7.398 3.702-7.398 8.104v14.802h-7.099V25.379h6.398l.468 3.937c2.935-2.88 5.872-4.348 9.503-4.348 6.824 0 12.293 5.107 12.293 14.217v15.207h-7.173zM243.814 17.276V25.5h7.984v6.165h-8.037v12.509c0 2.765 1.522 4.11 3.755 4.11 1.111 0 2.409-.351 3.46-.881l1.999 6.11c-2.061.822-3.764 1.175-5.936 1.232-6.284.231-10.39-3.349-10.39-10.572V31.666h-5.409V25.5h5.409v-7.464l7.165-.76zM263.453 25.438l.521 3.352c2.233-3.587 5.23-4.114 8.162-4.114 3 0 5.874 1.172 7.466 2.758l-3.234 6.223c-1.462-1.229-2.812-1.877-5.17-1.877-3.757 0-7.224 2-7.224 7.341v15.271h-7.173V25.438h6.652zM287.51 42.472c.471 3.584 3.59 6.164 8.636 6.164 2.652 0 6.104-.995 7.753-2.699l4.578 4.521c-3.055 3.175-8.044 4.702-12.446 4.702-9.988 0-15.913-6.17-15.913-15.448 0-8.81 5.979-15.156 15.383-15.156 9.692 0 15.739 5.993 14.625 17.917H287.51zm15.738-5.932c-.468-3.759-3.408-5.638-7.509-5.638-3.883 0-7.05 1.879-8.104 5.638h15.613zM4.757 59.381c.698.117 1.437.175 2.213.175 1.551 0 2.745-.417 3.58-1.249.833-.836 1.377-1.596 1.959-3.065L1.597 25.518h8.074l7.217 20.728 7.215-20.728h8.1L25.99 42.023c-1.906 5.16-3.589 10.242-5.843 15.088-.818 1.748-1.633 3.228-2.449 4.454-.816 1.22-1.711 2.229-2.679 3.022a9.452 9.452 0 0 1-3.294 1.745c-1.223.372-2.651.553-4.281.553-1.361 0-2.615-.123-3.761-.377l1.074-7.127z"/></svg>