<svg width="110" height="20" viewBox="0 0 110 20" fill="none" xmlns="http://www.w3.org/2000/svg"><g xmlns="http://www.w3.org/2000/svg"><path fill="#FF9524" d="M15.572 15.984H4.31L.727 19.617h14.845v-3.633ZM20.475 10.055c0-3.77 2.587-6.31 5.926-6.31 3.34 0 5.9 2.516 5.925 6.255l3.455-3.504C34.463 2.552 30.926 0 26.43 0c-5.74 0-9.995 4.154-9.995 10.055 0 4.644 2.637 8.137 6.556 9.415l3.198-3.244c-3.237-.101-5.713-2.506-5.713-6.17Z"></path><path fill="#FF2400" d="M.053.383V3.99h11.208c-.109 2.705-2.075 3.415-4.31 4.18C3.77 9.263 0 10.656 0 18.142v1.475h.727l3.583-3.633c.109-2.869 2.128-3.633 4.418-4.426.114-.04.316-.11.432-.152 2.446-.869 5.067-2.062 6.001-6.086.216-.962.356-2.172.356-3.488V.382H.053Z"></path><path fill="#FFCD00" d="M59.729.355V4.3L63.617.355h-3.888ZM47.9 16.23c-3.34 0-5.955-2.433-5.955-6.175s2.613-6.31 5.955-6.31 5.9 2.54 5.9 6.31c0 .088-.003.175-.006.262l3.555-3.604C56.088 2.646 52.507 0 47.93 0c-5.738 0-9.995 4.154-9.995 10.055 0 4.728 2.733 8.262 6.772 9.48l3.26-3.306-.064.002-.002-.002ZM35.783 6.496 32.328 10v.055c0 3.742-2.586 6.174-5.927 6.174-.072 0-.142-.003-.213-.005l-3.198 3.243c1.06.346 2.216.532 3.439.532 5.737 0 9.914-4.044 9.914-9.945 0-1.277-.195-2.471-.56-3.56v.002Z"></path><path fill="#00B62F" d="M82.575.383H78.56V7.29l4.015-4.071V.383ZM57.35 6.713l-3.556 3.604c-.115 3.57-2.598 5.88-5.828 5.91l-3.261 3.308c1.002.302 2.083.464 3.224.464 5.737 0 9.915-4.044 9.915-9.945 0-1.193-.174-2.313-.493-3.344l-.002.003ZM69.266 0c-2.425 0-4.418 1.228-5.523 3.416V.356h-.125L59.728 4.3v15.317h4.015v-6.885c1.131 2.269 3.18 3.416 5.523 3.416.198 0 .392-.011.587-.026 3.316-.277 6.065-2.89 6.594-6.688.06-.434.093-.883.093-1.346 0-4.754-3.315-8.087-7.275-8.087L69.266 0Zm-1.158 12.541c-2.506 0-4.365-1.777-4.365-4.454 0-2.677 1.94-4.454 4.365-4.454 2.56 0 4.444 1.75 4.444 4.454 0 2.705-1.886 4.454-4.444 4.454Z"></path><path fill="#008BFF" d="M99.251 0c-5.01 0-9.16 4.18-9.16 10 0 2.278.637 4.302 1.712 5.925l2.933-2.978c-.387-.841-.605-1.83-.605-2.948 0-3.744 2.426-6.203 5.847-6.203 1.146 0 2.169.27 3.032.752l2.064-2.095C103.638.863 101.63 0 99.251 0ZM82.575 15.984V3.219l-4.015 4.07v12.328h11.343v-3.633h-7.328Z"></path><path fill="#9F46F6" d="M107.151.383h-1.165V3.69a7.897 7.897 0 0 0-.912-1.234L103.01 4.55a.433.433 0 0 0 .022.013c1.846 1.04 2.955 3.049 2.955 5.465 0 3.69-2.558 6.146-6.008 6.146-2.325 0-4.286-1.164-5.234-3.207l-.008-.018-2.933 2.977.01.014c1.67 2.516 4.394 4.06 7.439 4.06 3.044 0 5.307-1.339 6.734-3.716v3.333h4.014V.383h-2.85Z"></path></g></svg>