<svg xmlns="http://www.w3.org/2000/svg" viewBox="0 0 400 400" width="400" height="400">
  <title>Sonnco</title>
  <desc>Eight-petal flower mark with a solid centre.</desc>
  <g fill="#141B2D">
    <ellipse cx="200" cy="112" rx="26" ry="76" transform="rotate(0 200 200)"/>
    <ellipse cx="200" cy="112" rx="26" ry="76" transform="rotate(45 200 200)"/>
    <ellipse cx="200" cy="112" rx="26" ry="76" transform="rotate(90 200 200)"/>
    <ellipse cx="200" cy="112" rx="26" ry="76" transform="rotate(135 200 200)"/>
    <ellipse cx="200" cy="112" rx="26" ry="76" transform="rotate(180 200 200)"/>
    <ellipse cx="200" cy="112" rx="26" ry="76" transform="rotate(225 200 200)"/>
    <ellipse cx="200" cy="112" rx="26" ry="76" transform="rotate(270 200 200)"/>
    <ellipse cx="200" cy="112" rx="26" ry="76" transform="rotate(315 200 200)"/>
    <circle cx="200" cy="200" r="36"/>
  </g>
</svg>
